<?xml version="1.0" encoding="UTF-8" standalone="no"?>
<!-- Created with Inkscape (http://www.inkscape.org/) -->

<svg
   width="26.744904mm"
   height="27.871328mm"
   viewBox="0 0 26.744904 27.871328"
   version="1.1"
   id="svg1"
   xml:space="preserve"
   xmlns="http://www.w3.org/2000/svg"
   xmlns:svg="http://www.w3.org/2000/svg"><defs
     id="defs1" /><g
     id="layer1"
     transform="translate(-69.764986,-102.10273)"><path
       d="m 81.926292,129.92221 c -2.104926,-0.33759 -4.531089,-1.12273 -5.8373,-1.88904 -1.610292,-0.9447 -2.698924,-1.91544 -3.546171,-3.16213 -0.915014,-1.34642 -1.22571,-2.06449 -1.87443,-4.33216 -0.276812,-0.96762 -0.351551,-1.17438 -0.29075,-0.80433 0.04653,0.28318 0.04292,0.28845 -0.08143,0.11873 -0.07157,-0.0977 -0.215774,-0.57393 -0.32046,-1.05833 -0.371367,-1.71839 -0.242109,-4.45783 0.309911,-6.5681 0.930272,-3.55627 3.358503,-6.69936 6.588031,-8.52752 0.987806,-0.55918 2.661931,-1.19605 3.697934,-1.40677 1.037906,-0.21112 2.976525,-0.25331 4.148667,-0.0903 0.950006,0.13211 3.186885,0.71868 3.957829,1.03783 1.580572,0.65433 3.151988,1.65726 4.091275,2.61119 1.454068,1.47673 2.451851,3.50564 2.952398,6.00346 0.179369,0.89508 0.327228,1.29716 0.22008,0.59848 l -0.05843,-0.381 0.162897,0.29633 c 0.37435,0.681 0.588935,3.48446 0.384427,5.02237 -0.419461,3.15438 -1.132455,5.05528 -2.683382,7.15411 -1.987176,2.68919 -5.151206,4.77182 -8.011095,5.27306 -0.828633,0.14523 -3.156956,0.20886 -3.81,0.10412 z m 4.151098,-1.23496 c 0.939811,-0.24786 2.453931,-0.91602 3.443327,-1.51949 0.88725,-0.54116 2.816351,-2.48451 3.512598,-3.53854 0.5152,-0.77995 1.104603,-1.91657 1.452465,-2.80098 0.553895,-1.40822 0.987178,-3.54483 0.987178,-4.86799 0,-1.44492 -0.406923,-3.73937 -0.938677,-5.29277 -0.474359,-1.38573 -1.34927,-2.76698 -2.418944,-3.81885 -1.572432,-1.54627 -3.160188,-2.4956 -5.210741,-3.11557 -1.776379,-0.53707 -2.372478,-0.63105 -3.962304,-0.62475 -1.591289,0.006 -2.354911,0.14153 -3.773671,0.66816 -1.969459,0.73106 -3.446682,1.71076 -4.694287,3.11326 -0.992685,1.11593 -1.487241,1.83884 -2.104966,3.07691 -0.857551,1.71873 -1.307156,3.2984 -1.541365,5.4155 -0.121997,1.10278 -0.02996,2.20076 0.314315,3.74985 0.901573,4.05666 2.934386,6.69171 6.503487,8.43022 1.252603,0.61015 2.365853,0.98742 3.626639,1.22906 1.290756,0.24738 3.6677,0.19592 4.804946,-0.10402 z m -4.151098,-1.87254 c -1.112159,-0.20263 -2.371763,-0.9552 -3.136722,-1.87407 -0.940157,-1.12931 -1.492418,-3.5735 -1.140288,-5.04666 0.08218,-0.3438 0.26156,-0.89899 0.398627,-1.23376 0.196675,-0.48034 0.230151,-0.64427 0.158797,-0.7776 -0.04973,-0.0929 -0.09098,-0.44767 -0.09167,-0.78834 -0.0025,-1.23838 -0.399499,-2.25451 -1.151734,-2.94789 -0.383545,-0.35354 -0.39975,-0.35942 -0.873037,-0.3165 -0.276463,0.0251 -0.660619,0.13617 -0.900275,0.26037 -0.440066,0.22806 -1.222369,0.90604 -1.222369,1.05935 0,0.0496 0.09874,0.23465 0.219424,0.41135 0.184579,0.27024 0.213741,0.39163 0.183643,0.76445 -0.05338,0.66113 -0.512365,1.04973 -1.263126,1.06941 -0.307387,0.008 -0.383592,-0.0325 -0.672369,-0.35791 -0.34095,-0.38421 -0.472015,-0.78862 -0.377554,-1.16498 0.07728,-0.30792 0.49151,-0.70085 0.804919,-0.76353 0.276419,-0.0553 0.277449,-0.0574 0.418931,-0.87718 0.194815,-1.12876 0.867774,-2.47634 1.537202,-3.07822 0.959514,-0.86268 1.946267,-1.08361 3.305109,-0.73999 0.819197,0.20716 1.651945,0.57742 2.104118,0.93555 l 0.317175,0.25121 0.278211,-0.73744 c 0.572346,-1.5171 0.798111,-1.89966 1.524113,-2.58263 1.169199,-1.0999 2.600868,-1.64032 4.14812,-1.56582 l 0.808747,0.0389 0.126168,-0.26051 c 0.289546,-0.59783 1.071902,-0.81794 1.608697,-0.4526 0.449287,0.30578 0.635255,0.61723 0.625906,1.04824 -0.0093,0.42841 -0.194969,0.7328 -0.625906,1.02609 -0.469498,0.31954 -1.06389,0.20124 -1.415736,-0.28177 l -0.162451,-0.22301 -0.469778,0.30052 c -0.801402,0.51265 -1.255508,1.2242 -1.436302,2.25059 -0.07493,0.42539 -0.06498,0.62214 0.05712,1.12885 0.08133,0.33751 0.159959,0.62787 0.174732,0.64525 0.01477,0.0174 0.200569,-0.1213 0.412879,-0.30818 0.442155,-0.3892 1.291985,-0.73445 2.161196,-0.878 0.515928,-0.0852 0.678227,-0.0747 1.413334,0.0918 1.202251,0.27229 1.461097,0.41858 2.00179,1.13136 0.253972,0.3348 0.547633,0.78018 0.65258,0.98973 0.303004,0.60501 0.674547,1.77699 0.730575,2.30449 0.04849,0.45656 0.06749,0.48945 0.333206,0.57715 0.459128,0.15152 0.710656,0.52331 0.710656,1.05044 0,0.32586 -0.04813,0.50894 -0.176809,0.67252 -0.356116,0.45273 -0.980728,0.61267 -1.520133,0.38924 -0.579492,-0.24004 -0.789933,-1.20083 -0.380569,-1.73753 l 0.208489,-0.27335 -0.293922,-0.37726 c -0.839321,-1.0773 -1.70305,-1.39491 -2.625431,-0.9654 -0.861905,0.40135 -1.241738,1.1294 -1.384579,2.65392 -0.06881,0.73443 -0.0662,0.75063 0.21591,1.33611 0.527064,1.09387 0.75294,2.70454 0.53075,3.78467 -0.05076,0.24676 -0.244034,0.76647 -0.429494,1.15489 -0.695418,1.45648 -2.42509,2.72938 -4.39081,3.23127 -0.737064,0.18819 -1.216579,0.20055 -2.030068,0.0523 z m 1.99729,-0.81607 c 1.272436,-0.32409 2.267831,-0.96981 3.090143,-2.0046 0.681252,-0.85729 1.0255,-1.60202 1.0255,-2.21854 0,-1.1133 -0.422433,-2.75785 -0.843318,-3.28308 l -0.147282,-0.18379 -0.762,0.18335 c -0.692895,0.16672 -0.98467,0.18309 -3.217333,0.18055 -2.00569,-0.002 -2.571621,-0.0293 -3.090333,-0.14766 -0.34925,-0.0797 -0.695667,-0.14488 -0.769816,-0.14492 -0.182116,-9e-5 -0.702553,1.12589 -0.919612,1.9896 l -0.170219,0.67733 0.0414,-0.71966 c 0.02277,-0.39582 0.06281,-0.81492 0.08898,-0.93134 0.0451,-0.2006 0.04175,-0.20282 -0.06408,-0.0423 -0.07856,0.11914 -0.111658,0.50818 -0.111658,1.31233 0,1.04899 0.02001,1.1974 0.24332,1.80437 0.65342,1.77606 2.075896,3.11841 3.778346,3.56553 0.644723,0.16932 1.049669,0.16109 1.827957,-0.0371 z m -1.61629,-1.38719 c -0.570875,-0.18054 -0.908388,-0.39411 -1.46012,-0.92391 -0.831358,-0.79831 -0.696759,-0.95584 0.339235,-0.39703 1.609412,0.8681 2.906213,0.85161 4.071044,-0.0518 0.272154,-0.21107 0.514855,-0.36373 0.539335,-0.33925 0.171523,0.17152 -0.406494,1.04867 -0.893733,1.35625 -0.697711,0.44045 -1.835028,0.5963 -2.595761,0.35571 z m 1.792111,-3.32468 c -0.03104,-0.031 -0.05644,-0.20117 -0.05644,-0.37805 0,-0.61237 0.741386,-1.17575 1.387689,-1.0545 0.407442,0.0764 0.898311,0.65236 0.898311,1.05396 0,0.15856 -0.0302,0.1532 -0.499057,-0.0886 -0.453369,-0.23382 -0.526678,-0.24827 -0.800756,-0.15782 -0.189741,0.0626 -0.368428,0.20754 -0.481515,0.39052 -0.171394,0.27732 -0.32503,0.3577 -0.448227,0.2345 z m -2.406222,-0.31486 c -0.371182,-0.39353 -0.799794,-0.46604 -1.340614,-0.22681 -0.219877,0.0973 -0.414793,0.16182 -0.433147,0.14347 -0.094,-0.094 0.111491,-0.50476 0.363011,-0.7256 0.770443,-0.67645 2.044816,-0.18787 1.965371,0.75351 -0.03364,0.39859 -0.213944,0.41661 -0.554621,0.0554 z m 1.824822,-5.44522 c 0.128448,-0.41852 0.06006,-0.46187 -0.105085,-0.0666 -0.153003,0.36619 -0.155209,0.37981 -0.0615,0.37981 0.03875,0 0.113716,-0.14093 0.166583,-0.31319 z m -4.672029,-0.33549 c -0.07163,-0.13217 -0.131761,-0.21353 -0.133626,-0.1808 -0.0057,0.10064 0.191242,0.49374 0.228656,0.45633 0.01936,-0.0194 -0.0234,-0.14335 -0.09503,-0.27553 z m -2.380682,-2.06065 c -0.06613,-0.10701 -0.300086,-0.10701 -0.465667,0 -0.09427,0.0609 -0.0439,0.0824 0.195497,0.0834 0.193715,7.8e-4 0.301601,-0.0325 0.27017,-0.0834 z m 4.728104,-1.143 c 0.03594,-0.23603 0.02832,-0.28735 -0.02515,-0.16933 -0.07364,0.16253 -0.121651,0.61602 -0.05752,0.54328 0.01711,-0.0194 0.05431,-0.18768 0.08267,-0.37395 z m -6.00551,-0.36343 c 0.161672,-0.22888 0.161506,-0.22884 -0.105833,0.0194 -0.292418,0.27157 -0.322621,0.31878 -0.161928,0.25307 0.05821,-0.0238 0.178701,-0.14643 0.267761,-0.27251 z m 13.52214,-0.42379 c -0.157263,-0.0162 -0.318196,0.003 -0.357627,0.0423 -0.03943,0.0394 0.08924,0.0527 0.285932,0.0294 0.348824,-0.0412 0.350588,-0.043 0.0717,-0.0717 z m 6.417018,8.95755 c -0.0031,-0.0837 -0.02944,-0.0693 -0.07742,0.0423 -0.100019,0.23275 -0.100019,0.36643 0,0.21166 0.04514,-0.0699 0.07998,-0.18415 0.07742,-0.254 z"
       style="fill:#000000"
       id="path1-2" /></g></svg>
